<?xml version="1.0" encoding="UTF-8"?>
<svg version="1.1" xmlns="http://www.w3.org/2000/svg" width="512" height="512">
<path d="M0 0 C5.66127728 2.56258574 8.8793335 6.20887975 12 11.55859375 C13.69401688 18.33466126 13.35179401 23.99756687 10.08251953 30.17456055 C7.42597554 34.23841266 3.93471541 37.47202781 0.4375 40.80859375 C-0.30757813 41.535625 -1.05265625 42.26265625 -1.8203125 43.01171875 C-3.64219638 44.78688766 -5.47276697 46.55196193 -7.3125 48.30859375 C-6.49007813 48.99824219 -5.66765625 49.68789062 -4.8203125 50.3984375 C11.87472094 64.43292788 27.67231964 78.72816501 40.6875 96.30859375 C41.10451172 96.85950684 41.52152344 97.41041992 41.95117188 97.97802734 C70.7500163 136.04327062 86.06371056 182.76200918 87.6875 230.30859375 C87.749375 231.91927734 87.749375 231.91927734 87.8125 233.5625 C88.72025048 280.7087908 74.73565691 331.07151454 46.6875 369.30859375 C45.99398438 370.2728125 45.30046875 371.23703125 44.5859375 372.23046875 C39.35467178 379.36569337 33.75248071 386.14482503 27.96582031 392.83056641 C26.8020038 394.17620147 25.64662454 395.52912209 24.4921875 396.8828125 C20.83469371 401.10685925 17.05471023 404.91996282 12.78125 408.51953125 C11.3540919 409.7390059 9.95878521 410.99652227 8.59375 412.28515625 C-35.98677149 454.27023642 -98.25618784 472.00557385 -158.3125 470.30859375 C-220.36674563 467.63655727 -278.45789358 438.43994594 -320.29858398 393.0612793 C-362.58237041 345.91583608 -382.09956173 284.31487742 -379.18359375 221.53320312 C-376.62272967 177.04639768 -360.41722574 132.68171056 -333.3125 97.30859375 C-332.58160156 96.34695312 -331.85070312 95.3853125 -331.09765625 94.39453125 C-327.0891581 89.26682867 -322.79238983 84.42387921 -318.40234375 79.62109375 C-316.62893159 77.65873861 -314.93099755 75.66197966 -313.25 73.62109375 C-310.55764361 70.45535602 -307.5740394 67.78082115 -304.40625 65.09765625 C-303.06855483 63.95462567 -301.75307153 62.78472218 -300.46875 61.58203125 C-286.42835016 48.48880124 -270.22723692 38.238168 -253.3125 29.30859375 C-252.5400293 28.89770508 -251.76755859 28.48681641 -250.97167969 28.06347656 C-220.57704615 12.13747636 -186.42096408 4.62708668 -152.3125 3.30859375 C-151.29414063 3.26605469 -150.27578125 3.22351562 -149.2265625 3.1796875 C-112.24380266 2.43606632 -77.00036162 11.74879639 -43.3125 26.30859375 C-42.61688965 25.59727295 -41.9212793 24.88595215 -41.20458984 24.15307617 C-38.60689314 21.50083175 -35.99907754 18.858731 -33.38818359 16.21948242 C-32.26237642 15.07864509 -31.13928344 13.93512237 -30.01904297 12.78881836 C-28.40268188 11.13581975 -26.77660967 9.49291882 -25.1484375 7.8515625 C-24.65443451 7.34207565 -24.16043152 6.83258881 -23.65145874 6.30766296 C-16.85920404 -0.48779785 -9.29722439 -2.77974446 0 0 Z " fill="#E6EEFE" transform="translate(383.3125,37.69140625)"/>
<path d="M0 0 C7.74624915 4.38477288 7.74624915 4.38477288 10.3671875 6.63671875 C10.93405273 7.12261475 11.50091797 7.60851074 12.08496094 8.10913086 C12.67567383 8.62999268 13.26638672 9.15085449 13.875 9.6875 C14.51211914 10.24638916 15.14923828 10.80527832 15.80566406 11.38110352 C27.83379482 22.07261335 39.24424961 33.31595445 48.76904297 46.3203125 C49.99785707 47.9970759 51.24944508 49.65487153 52.50390625 51.3125 C80.59596382 88.96232769 95.40316886 135.24278825 97 182 C97.04125 183.07378906 97.0825 184.14757812 97.125 185.25390625 C98.03275048 232.40019705 84.04815691 282.76292079 56 321 C54.95972656 322.44632812 54.95972656 322.44632812 53.8984375 323.921875 C48.66717178 331.05709962 43.06498071 337.83623128 37.27832031 344.52197266 C36.1145038 345.86760772 34.95912454 347.22052834 33.8046875 348.57421875 C30.15865217 352.78503211 26.39114356 356.58932994 22.1328125 360.1796875 C19.69171015 362.26311918 17.35398253 364.44378683 15 366.625 C10.90242657 370.33565086 6.78867106 373.25094809 2 376 C1.49219106 373.79344925 0.99408635 371.58466395 0.5 369.375 C0.2215625 368.14523437 -0.056875 366.91546875 -0.34375 365.6484375 C-1 362 -1 362 -1 356 C-15.52 356 -30.04 356 -45 356 C-46.32 353.03 -47.64 350.06 -49 347 C-52.04481654 344.43683464 -52.04481654 344.43683464 -55 343 C-54.23816406 341.74509766 -54.23816406 341.74509766 -53.4609375 340.46484375 C-37.01360542 312.86541822 -30.17152576 281.21839825 -37.7421875 249.61328125 C-42.02594072 233.30990033 -49.27353337 218.35104687 -59.53125 204.9765625 C-61 203 -61 203 -61 202 C-55.72 201.67 -50.44 201.34 -45 201 C-44.44318592 195.46225779 -44.44318592 195.46225779 -46.23071289 193.1640625 C-46.8055542 192.65617188 -47.38039551 192.14828125 -47.97265625 191.625 C-48.61726807 191.03968506 -49.26187988 190.45437012 -49.92602539 189.85131836 C-50.63106201 189.2403833 -51.33609863 188.62944824 -52.0625 188 C-53.54186684 186.66819107 -55.02102891 185.33615465 -56.5 184.00390625 C-57.25410156 183.33504395 -58.00820313 182.66618164 -58.78515625 181.97705078 C-62.09756283 179.02027516 -65.32789855 175.97879171 -68.5625 172.9375 C-69.8028549 171.77937947 -71.0437411 170.6218277 -72.28515625 169.46484375 C-75.39911054 166.56061646 -78.5123232 163.65559643 -81.625 160.75 C-82.86827311 159.58961177 -84.11176038 158.42945295 -85.35546875 157.26953125 C-88.59710791 154.24581741 -91.83468649 151.21790948 -95.06640625 148.18359375 C-95.73542969 147.55646484 -96.40445312 146.92933594 -97.09375 146.28320312 C-98.36454073 145.09183682 -99.63415902 143.89921809 -100.90234375 142.70507812 C-104.50125678 139.33409625 -108.18175164 136.1208514 -112 133 C-111.53207031 132.14728516 -111.53207031 132.14728516 -111.0546875 131.27734375 C-109.36858906 127.63662008 -108.7933293 124.00513565 -109 120 C-110.74944076 116.95246665 -110.74944076 116.95246665 -113 115 C-111.46901121 111.37922726 -109.31585971 109.06909705 -106.54550171 106.30499268 C-105.86302697 105.61995466 -105.86302697 105.61995466 -105.16676486 104.92107749 C-103.64371927 103.39474235 -102.11364455 101.87565725 -100.58349609 100.35644531 C-99.48918935 99.2627028 -98.39532298 98.16851952 -97.30186462 97.07392883 C-94.33339913 94.10488929 -91.35880551 91.14205861 -88.38308287 88.18029499 C-85.27384007 85.08355068 -82.17025626 81.98114555 -79.06607056 78.8793335 C-73.18754389 73.00702418 -67.30393733 67.13983193 -61.41849387 61.27445579 C-54.71814043 54.59645338 -48.02346192 47.91277428 -41.32925677 41.22860956 C-27.55914795 27.47940852 -13.78191984 13.73736138 0 0 Z " fill="#E6EEFE" transform="translate(374,86)"/>
<path d="M0 0 C21.45 0 42.9 0 65 0 C65.99 1.98 65.99 1.98 67 4 C68.93189407 5.62728701 68.93189407 5.62728701 71.1875 7.125 C80.85845393 14.45945146 85.25427782 25.1814844 90 36 C91.98 36 93.96 36 96 36 C96.47050781 34.89140625 96.94101563 33.7828125 97.42578125 32.640625 C98.05440564 31.17696225 98.68332756 29.71342725 99.3125 28.25 C99.7755957 27.15558594 99.7755957 27.15558594 100.24804688 26.0390625 C101.83948215 22.35363345 103.36372111 19.08241839 106 16 C108.96175123 16.61277612 110.38058783 17.25372522 113 19 C114.78339627 23.11761772 115.95467469 27.45692182 117.25 31.75 C117.81460938 33.52117187 117.81460938 33.52117187 118.390625 35.328125 C118.74125 36.4728125 119.091875 37.6175 119.453125 38.796875 C119.77442383 39.84198242 120.09572266 40.88708984 120.42675781 41.96386719 C121.3284871 46.73980645 120.53376181 50.60360674 118.109375 54.77734375 C117.54307373 55.7828125 117.54307373 55.7828125 116.96533203 56.80859375 C116.56427246 57.51113281 116.16321289 58.21367187 115.75 58.9375 C107.60421001 73.83118641 103.82775366 89.43301415 102.46386719 106.27270508 C102.37627136 107.34708328 102.28867554 108.42146149 102.19842529 109.52839661 C102.13294495 110.34402573 102.0674646 111.15965485 102 112 C102.9173996 111.96669083 103.83479919 111.93338165 104.77999878 111.89906311 C113.45865338 111.59753683 122.13553247 111.3696772 130.8182354 111.22281742 C135.28182552 111.14476516 139.74106405 111.03910119 144.20214844 110.8684082 C148.51438536 110.70445806 152.82246293 110.61556117 157.13757706 110.57684135 C158.77671983 110.54928548 160.41565336 110.4954571 162.05300522 110.41404915 C174.53214795 109.81872042 174.53214795 109.81872042 178.66658211 113.47305489 C181.71706986 117.08339949 183.98565339 121.05285917 186.10634613 125.26155949 C187.21721997 127.42256181 188.52782212 129.40406796 189.91796875 131.39453125 C190.30162598 131.97243408 190.6852832 132.55033691 191.08056641 133.14575195 C191.44585449 133.69577881 191.81114258 134.24580566 192.1875 134.8125 C192.59403809 135.42504639 193.00057617 136.03759277 193.41943359 136.66870117 C196.45802695 141.23017868 199.59721198 145.7109114 202.8203125 150.14453125 C204 152 204 152 204 154 C205.670625 154.36351562 205.670625 154.36351562 207.375 154.734375 C208.91669327 155.07279547 210.45835838 155.4113443 212 155.75 C212.72445312 155.90726563 213.44890625 156.06453125 214.1953125 156.2265625 C214.95585937 156.39414062 215.71640625 156.56171875 216.5 156.734375 C217.35698486 156.91887207 218.21396973 157.10336914 219.09692383 157.29345703 C222 158 222 158 225.25268555 159.04638672 C233.88719185 161.65709736 241.62522866 162.22620079 250.64453125 161.9765625 C252.34798203 161.93145538 252.34798203 161.93145538 254.08584595 161.88543701 C255.24506561 161.85460022 256.40428528 161.82376343 257.59863281 161.79199219 C281.73245947 161.16882792 299.9450965 161.72424044 318.05371094 178.79589844 C321.61137609 182.82482481 322.93156544 185.6578272 324 191 C338.52 191 353.04 191 368 191 C371 205 371 205 371 212 C368.79264796 214.07414976 367.05884668 215.37456243 364.5 216.875 C363.82291992 217.29644287 363.14583984 217.71788574 362.44824219 218.15209961 C360.31541812 219.46485233 358.16181369 220.73566356 356 222 C355.34837891 222.38978027 354.69675781 222.77956055 354.02539062 223.18115234 C298.32017326 256.41405597 233.85445674 264.98841302 171.05371094 249.26220703 C112.47844526 233.80733316 61.24910388 194.07886596 30.625 142 C5.72022649 98.57434787 -4.52899237 49.81891609 0 0 Z " fill="#4E6AFE" transform="translate(5,251)"/>
<path d="M0 0 C2.49361571 1.20381448 4.68143083 2.45428722 7 4 C9.15949101 4.1004252 9.15949101 4.1004252 11.4375 3.75 C12.19933594 3.66234375 12.96117187 3.5746875 13.74609375 3.484375 C16.09438552 2.97971611 17.9079315 2.16278978 20 1 C20.6084375 1.66644531 21.216875 2.33289063 21.84375 3.01953125 C33.65534922 15.43908043 47.4789309 23.92050911 63 31 C64.33611328 31.61294922 64.33611328 31.61294922 65.69921875 32.23828125 C74.4288153 35.97541432 84.12767102 38.92719576 93.625 39.4375 C96.96786299 39.70184501 97.85537541 39.89573576 100.6875 41.9375 C101.450625 42.948125 102.21375 43.95875 103 45 C103.51820313 45.66902344 104.03640625 46.33804688 104.5703125 47.02734375 C122.79720399 71.58869305 130.80518773 102.77516239 126.34375 133.09375 C123.4641154 149.30846073 117.69929609 166.54749803 108 180 C107.01 180.33 106.02 180.66 105 181 C103.24798584 179.93305969 103.24798584 179.93305969 101.27246094 178.2824707 C88.18252044 168.09999762 78.1437028 166.39153909 61.80706787 167.0501709 C55.755012 167.28382497 49.70433134 167.28727704 43.6484375 167.27734375 C42.46561188 167.27723297 41.28278625 167.27712219 40.06411743 167.27700806 C29.98145522 167.18640964 20.5938742 165.88250257 10.875 163.25 C9.60430664 162.91379639 8.33361328 162.57759277 7.02441406 162.23120117 C-1.34473179 159.75143244 -5.64378328 156.62388466 -10.1875 149.125 C-13.04809065 144.50692229 -15.9838198 139.95466337 -19 135.4375 C-19.63627319 134.48218384 -19.63627319 134.48218384 -20.28540039 133.50756836 C-23.37273515 128.89052128 -26.55416476 124.34830332 -29.8203125 119.85546875 C-31 118 -31 118 -31 116 C-55.75 116 -80.5 116 -106 116 C-106 101.91975859 -106 101.91975859 -104.8125 95.6875 C-104.677229 94.96804199 -104.54195801 94.24858398 -104.40258789 93.50732422 C-100.53891324 74.06720997 -91.67999469 56.20211043 -79 41 C-78.35546875 40.20464844 -77.7109375 39.40929687 -77.046875 38.58984375 C-69.40519112 29.53475899 -59.84318156 22.50053117 -50 16 C-49.32710937 15.55269531 -48.65421875 15.10539062 -47.9609375 14.64453125 C-43.71885666 12 -43.71885666 12 -41 12 C-39 13 -39 13 -35.9375 15.0625 C-31.25160043 17.80767292 -26.26964532 17.95175533 -21 17 C-14.75852944 14.71831126 -10.5031407 11.02605832 -6 6.25 C-5.41605469 5.64800781 -4.83210938 5.04601562 -4.23046875 4.42578125 C-2.81085328 2.95962101 -1.40403581 1.48108656 0 0 Z " fill="#FEA101" transform="translate(213,247)"/>
<path d="M0 0 C5.66127728 2.56258574 8.8793335 6.20887975 12 11.55859375 C13.70203288 18.36672526 13.33460119 24.0062184 10.04736328 30.20532227 C7.5335948 34.09331427 4.2660106 37.18178666 0.9375 40.37109375 C-0.07957031 41.37366211 -0.07957031 41.37366211 -1.1171875 42.39648438 C-3.66366563 44.88728855 -6.20598244 47.36236052 -8.91440964 49.67845917 C-14.87974832 54.77994502 -20.41447049 60.27583591 -25.95117188 65.83374023 C-26.9964585 66.87930951 -28.04196652 67.92465749 -29.087677 68.96980286 C-31.90340566 71.78524659 -34.71605744 74.60374557 -37.5281353 77.42283511 C-40.4758139 80.37679825 -43.42635666 83.32789782 -46.37658691 86.27931213 C-51.95280519 91.85862876 -57.52647114 97.44048781 -63.0992074 103.02328211 C-69.44794851 109.38323098 -75.79955597 115.74031398 -82.15139675 122.0971669 C-95.20827265 135.16447329 -108.26157407 148.23534498 -121.3125 161.30859375 C-120.10868552 163.80220946 -118.85821278 165.99002458 -117.3125 168.30859375 C-117.1495671 172.52157298 -117.67487202 176.26288386 -119.875 179.87109375 C-120.349375 180.34546875 -120.82375 180.81984375 -121.3125 181.30859375 C-120.76078125 181.53160156 -120.2090625 181.75460938 -119.640625 181.984375 C-116.5819324 183.72413472 -114.5051188 185.96623857 -112.0625 188.49609375 C-108.23187086 192.41871932 -104.3106166 196.13946983 -100.140625 199.69921875 C-97.67216031 201.8723116 -95.39714637 204.21331744 -93.09375 206.55859375 C-91.22860326 208.39101862 -89.29322254 210.1021251 -87.3125 211.80859375 C-84.08293633 214.59098707 -81.07927347 217.51878804 -78.09375 220.55859375 C-76.22860326 222.39101862 -74.29322254 224.1021251 -72.3125 225.80859375 C-69.08792442 228.58668964 -66.08145857 231.4986065 -63.12109375 234.5546875 C-61.1406763 236.47522192 -59.02882775 238.14878861 -56.875 239.87109375 C-53.38846154 242.85282452 -53.38846154 242.85282452 -52.75 246.68359375 C-53.3125 249.30859375 -53.3125 249.30859375 -54.3125 250.30859375 C-87.07969576 251.86205507 -117.68536544 241.00594851 -142.3125 219.30859375 C-145.04680748 216.70385312 -147.70856487 214.04345299 -150.3125 211.30859375 C-150.88097656 211.62054688 -151.44945312 211.9325 -152.03515625 212.25390625 C-155.67587992 213.94000469 -159.30736435 214.51526445 -163.3125 214.30859375 C-166.375 212.37109375 -166.375 212.37109375 -168.3125 210.30859375 C-173.12473038 212.15768466 -176.21973719 216.17731033 -179.62695312 219.87695312 C-184.48256011 224.94503198 -189.46305745 227.70838108 -196.6875 227.87109375 C-202.84434007 227.67631064 -206.91491771 225.56019821 -211.3125 221.30859375 C-215.45040253 216.27600959 -216.07213841 210.62689541 -215.80859375 204.25390625 C-214.19345897 194.66483833 -205.05170612 187.72403018 -198.3125 181.30859375 C-198.96347656 180.39335937 -199.61445313 179.478125 -200.28515625 178.53515625 C-202.68716455 174.71230682 -202.88768037 172.74569948 -202.3125 168.30859375 C-200.8125 165.87109375 -200.8125 165.87109375 -199.3125 164.30859375 C-200.75436533 160.93178997 -202.54132438 159.00766755 -205.25 156.55859375 C-227.89250154 134.3165223 -239.05640107 100.69892516 -239.54296875 69.55859375 C-239.3125 67.30859375 -239.3125 67.30859375 -237.3125 65.30859375 C-234.625 64.74609375 -234.625 64.74609375 -231.3125 65.30859375 C-228.63115943 67.3318989 -226.50506276 69.77539213 -224.3125 72.30859375 C-223.73371094 72.96859375 -223.15492188 73.62859375 -222.55859375 74.30859375 C-221.38880099 75.6484906 -220.22346712 76.99229263 -219.0625 78.33984375 C-217.37451714 80.23882446 -215.62480266 82.02865363 -213.8125 83.80859375 C-210.71893357 86.84691792 -207.89144493 90.05624695 -205.0625 93.33984375 C-203.37451714 95.23882446 -201.62480266 97.02865363 -199.8125 98.80859375 C-196.71893357 101.84691792 -193.89144493 105.05624695 -191.0625 108.33984375 C-188.8345191 110.84632226 -186.4580537 113.17459358 -184.06640625 115.5234375 C-181.59512955 118.03874586 -179.31917831 120.70791088 -177.0234375 123.3828125 C-175.37635239 125.23672336 -173.65906208 126.96235076 -171.875 128.68359375 C-169.3125 131.30859375 -169.3125 131.30859375 -169.3125 133.30859375 C-168.0440625 132.31859375 -168.0440625 132.31859375 -166.75 131.30859375 C-162.75537215 128.98444664 -160.85797679 128.65923992 -156.3125 129.30859375 C-154.27972877 130.59141054 -152.27441188 131.91982467 -150.3125 133.30859375 C-149.64289183 132.6362202 -148.97328365 131.96384665 -148.28338432 131.27109814 C-131.99189517 114.91301776 -115.69176611 98.56358608 -99.38253593 82.22319317 C-91.49572497 74.32091169 -83.61174775 66.4158413 -75.734375 58.50415039 C-68.8686563 51.60853514 -61.99768494 44.71820503 -55.1203481 37.83417636 C-51.47886213 34.18877862 -47.84006542 30.54078455 -44.20754623 26.88644981 C-40.78808761 23.44662217 -37.36164691 20.0139078 -33.92973518 16.58650589 C-32.67182071 15.32776641 -31.41647303 14.06645572 -30.16391182 12.80238914 C-28.45190935 11.07543647 -26.73086731 9.35801713 -25.0072937 7.6426239 C-24.51505652 7.1416482 -24.02281934 6.6406725 -23.51566589 6.12451571 C-16.75605256 -0.54887373 -9.17504918 -2.74321572 0 0 Z " fill="#4E6AFE" transform="translate(383.3125,37.69140625)"/>
<path d="M0 0 C21.45 0 42.9 0 65 0 C65.99 1.98 65.99 1.98 67 4 C68.93189407 5.62728701 68.93189407 5.62728701 71.1875 7.125 C80.85845393 14.45945146 85.25427782 25.1814844 90 36 C91.98 36 93.96 36 96 36 C96.47050781 34.89140625 96.94101563 33.7828125 97.42578125 32.640625 C98.05440564 31.17696225 98.68332756 29.71342725 99.3125 28.25 C99.7755957 27.15558594 99.7755957 27.15558594 100.24804688 26.0390625 C101.83948215 22.35363345 103.36372111 19.08241839 106 16 C108.96175123 16.61277612 110.38058783 17.25372522 113 19 C114.78339627 23.11761772 115.95467469 27.45692182 117.25 31.75 C117.81460938 33.52117187 117.81460938 33.52117187 118.390625 35.328125 C118.74125 36.4728125 119.091875 37.6175 119.453125 38.796875 C119.77442383 39.84198242 120.09572266 40.88708984 120.42675781 41.96386719 C121.3284871 46.73980645 120.53376181 50.60360674 118.109375 54.77734375 C117.54307373 55.7828125 117.54307373 55.7828125 116.96533203 56.80859375 C116.56427246 57.51113281 116.16321289 58.21367187 115.75 58.9375 C106.49020397 75.86802465 103.58926055 92.92887342 102 112 C73.62 112 45.24 112 16 112 C7.83424495 89.83580773 7.83424495 89.83580773 5.75 81.0625 C5.50677002 80.06379883 5.26354004 79.06509766 5.01293945 78.03613281 C0.7986229 60.20622327 -1.18998346 42.25200511 -1.125 23.9375 C-1.12886719 22.84373047 -1.13273438 21.74996094 -1.13671875 20.62304688 C-1.13542969 19.53958984 -1.13414063 18.45613281 -1.1328125 17.33984375 C-1.13168457 16.38456787 -1.13055664 15.42929199 -1.12939453 14.44506836 C-0.9481213 9.61875401 -0.43726207 4.80988275 0 0 Z " fill="#3340D3" transform="translate(5,251)"/>
<path d="M0 0 C2.78818736 0.87628746 3.80415735 1.74779288 5.6015625 4.0625 C7.4072802 7.85551595 7.32918299 11.2153957 7.1875 15.3125 C7.125625 17.849375 7.06375 20.38625 7 23 C12.94 23 18.88 23 25 23 C24.8425481 17.62965487 24.8425481 17.62965487 24.63964844 12.26098633 C24.58162028 8.32396321 24.72713976 6.43127703 26.890625 3.01171875 C29.06272894 0.94017518 30.03653891 0.04277916 33.0234375 -0.08984375 C33.79945313 -0.03957031 34.57546875 0.01070313 35.375 0.0625 C36.14585937 0.09472656 36.91671875 0.12695312 37.7109375 0.16015625 C41.35853619 1.49843905 42.29756767 3.58358036 44 7 C44.44183192 9.82004928 44.38376767 12.5298645 44.25 15.375 C44.23195313 16.11105469 44.21390625 16.84710938 44.1953125 17.60546875 C44.14859176 19.40421736 44.07686183 21.20228711 44 23 C45.134375 23.0825 46.26875 23.165 47.4375 23.25 C56.17726977 24.39064015 63.0536695 28.58627234 69 35 C75.65791832 43.88848994 76.91946787 52.06730271 76 63 C74.54209035 68.82412359 72.12172475 73.58386634 68 78 C69.04863937 80.97114488 70.18989834 83.27297886 72 85.875 C76.59303193 93.05161239 76.9077052 100.64911212 76 109 C73.80196761 117.44453375 69.78001012 123.53707794 63 129 C51.87049919 134.5647504 34.43858991 129.14957706 23 126.3125 C22.29300964 126.14259552 21.58601929 125.97269104 20.85760498 125.79763794 C18.81529855 125.30000252 16.78234875 124.77499919 14.75 124.23828125 C13.56921875 123.92930908 12.3884375 123.62033691 11.171875 123.30200195 C4.60376538 120.60590215 1.48427562 114.97217045 -1.9921875 109.10058594 C-3.86147918 106.02082199 -3.86147918 106.02082199 -6.0925293 103.7355957 C-15.06723697 93.36304272 -12.8679869 80.14689954 -12.5 67.25 C-12.45981786 64.7995374 -12.42332548 62.34901136 -12.390625 59.8984375 C-12.30302009 53.93089409 -12.16962019 47.96574607 -12 42 C-13.16917969 42.04640625 -14.33835938 42.0928125 -15.54296875 42.140625 C-17.0911202 42.17815594 -18.63929939 42.21455469 -20.1875 42.25 C-20.95642578 42.28351563 -21.72535156 42.31703125 -22.51757812 42.3515625 C-26.54253008 42.42066039 -28.49808724 42.31755003 -31.98828125 40.109375 C-35.05633009 36.89239175 -35.22166154 34.56172307 -35.62109375 30.16796875 C-34.80110366 27.30573919 -33.20720097 25.78126733 -30.87817383 23.98803711 C-27.41358008 22.16544373 -23.9460603 22.47701786 -20.125 22.6875 C-19.34125 22.71005859 -18.5575 22.73261719 -17.75 22.75585938 C-15.8324974 22.81431982 -13.9159894 22.90398717 -12 23 C-12.06960937 21.75863281 -12.13921875 20.51726562 -12.2109375 19.23828125 C-12.26723028 17.59640842 -12.32182881 15.95447689 -12.375 14.3125 C-12.42527344 13.49587891 -12.47554687 12.67925781 -12.52734375 11.83789062 C-12.67153409 5.90205486 -12.67153409 5.90205486 -10.74755859 3.31762695 C-7.1921456 0.22110132 -4.64500802 -0.70684905 0 0 Z " fill="#FEFDFB" transform="translate(203,284)"/>
<path d="M0 0 C5.66127728 2.56258574 8.8793335 6.20887975 12 11.55859375 C13.70203288 18.36672526 13.33460119 24.0062184 10.04736328 30.20532227 C7.5335948 34.09331427 4.2660106 37.18178666 0.9375 40.37109375 C-0.07957031 41.37366211 -0.07957031 41.37366211 -1.1171875 42.39648438 C-3.66256934 44.88621624 -6.20352226 47.36058099 -8.9111824 49.67523193 C-14.91103006 54.80506647 -20.47470462 60.3361545 -26.04296875 65.92553711 C-27.09810747 66.98095847 -28.15346757 68.03615856 -29.20903015 69.09115601 C-32.05161743 71.93345833 -34.89112766 74.77881628 -37.73006439 77.6247642 C-40.70577049 80.60675429 -43.68434021 83.58588133 -46.66259766 86.56532288 C-52.29193978 92.19776351 -57.9187296 97.83274664 -63.54459 103.46866471 C-69.9537897 109.88907168 -76.36585532 116.30661321 -82.77815437 122.72392452 C-95.9594442 135.91564519 -109.1371596 149.11093118 -122.3125 162.30859375 C-123.4245616 161.36000109 -124.53596501 160.4106368 -125.64709473 159.46095276 C-126.57557095 158.66806272 -126.57557095 158.66806272 -127.52280426 157.8591547 C-131.78623134 154.16539637 -135.78368037 150.19122014 -139.8125 146.24609375 C-140.74320313 145.36115234 -141.67390625 144.47621094 -142.6328125 143.56445312 C-143.50679687 142.70529297 -144.38078125 141.84613281 -145.28125 140.9609375 C-146.07982422 140.18741943 -146.87839844 139.41390137 -147.70117188 138.61694336 C-149.3125 136.30859375 -149.3125 136.30859375 -149.22428417 134.0067234 C-148.03287142 130.48112363 -145.93353833 128.37800246 -143.33528137 125.83016968 C-142.81188209 125.301236 -142.2884828 124.77230232 -141.74922293 124.22734034 C-139.99301015 122.45751507 -138.22285501 120.70233923 -136.45239258 118.94677734 C-135.19022158 117.68082334 -133.92891005 116.41401193 -132.668396 115.14640808 C-129.24144087 111.70547672 -125.80201865 108.27726237 -122.35984254 104.85156584 C-118.7595525 101.26511748 -115.16941585 97.66853039 -111.57780457 94.07339478 C-105.54282744 88.03571432 -99.49980547 82.00617807 -93.4519043 75.98144531 C-86.46197684 69.0181102 -79.48454341 62.04244738 -72.51377946 55.05993211 C-65.80759515 48.3429628 -59.0929478 41.63451663 -52.37430382 34.93001175 C-49.5156698 32.07713304 -46.65997281 29.22136135 -43.80658913 26.36323166 C-40.44411748 22.99598262 -37.07427736 19.63628379 -33.69863892 16.2822361 C-32.46172537 15.05088081 -31.22734032 13.81697952 -29.99570274 12.58034706 C-28.31219309 10.89086849 -26.61969875 9.21092715 -24.92463684 7.53305054 C-24.44086368 7.04326733 -23.95709052 6.55348412 -23.45865756 6.048859 C-16.71233469 -0.57386914 -9.12449297 -2.72810009 0 0 Z " fill="#3340D4" transform="translate(383.3125,37.69140625)"/>
<path d="M0 0 C0.495 0.99 0.495 0.99 1 2 C15.52 2 30.04 2 45 2 C48 16 48 16 48 23 C45.79264796 25.07414976 44.05884668 26.37456243 41.5 27.875 C40.82291992 28.29644287 40.14583984 28.71788574 39.44824219 29.15209961 C37.31541812 30.46485233 35.16181369 31.73566356 33 33 C32.34837891 33.38978027 31.69675781 33.77956055 31.02539062 34.18115234 C-6.00922985 56.27545574 -47.20604169 68.31262781 -90.4375 68.125 C-92.06739868 68.12209961 -92.06739868 68.12209961 -93.73022461 68.11914062 C-101.19494142 68.07891462 -108.57570557 67.82656161 -116 67 C-114.515 66.505 -114.515 66.505 -113 66 C-112.22017906 64.28214598 -112.22017906 64.28214598 -111.76171875 62.0703125 C-110.38118153 57.01464652 -108.59512231 52.22303061 -106.64453125 47.3671875 C-106.33643524 46.59940979 -106.02833923 45.83163208 -105.71090698 45.04058838 C-104.74808913 42.65070438 -103.78041303 40.26282433 -102.8125 37.875 C-102.1512898 36.23453734 -101.49047918 34.59391356 -100.83007812 32.953125 C-99.22465388 28.96687713 -97.61383429 24.98285006 -96 21 C-95.43418213 21.02300171 -94.86836426 21.04600342 -94.28540039 21.06970215 C-88.31350819 21.29607783 -82.34703332 21.40546342 -76.37109375 21.45166016 C-74.15173704 21.48348465 -71.93257683 21.54362981 -69.71484375 21.63427734 C-55.42000099 22.37070966 -55.42000099 22.37070966 -42.90234375 16.40625 C-38.41912964 12.20895882 -33.77168934 7.54337868 -31 2 C-20.77 2 -10.54 2 0 2 C0 1.34 0 0.68 0 0 Z " fill="#8FA2FF" transform="translate(328,440)"/>
<path d="M0 0 C4.98107783 0.84584341 7.09592924 3.84619943 10.3125 7.5625 C10.89128906 8.2225 11.47007812 8.8825 12.06640625 9.5625 C13.23619901 10.90239685 14.40153288 12.24619888 15.5625 13.59375 C17.25048286 15.49273071 19.00019734 17.28255988 20.8125 19.0625 C23.90606643 22.10082417 26.73355507 25.3101532 29.5625 28.59375 C31.25048286 30.49273071 33.00019734 32.28255988 34.8125 34.0625 C37.90606643 37.10082417 40.73355507 40.3101532 43.5625 43.59375 C45.25048286 45.49273071 47.00019734 47.28255988 48.8125 49.0625 C52.52663929 52.71860586 55.91573635 56.61329567 59.3125 60.5625 C60.62372788 62.06361215 61.93619046 63.56364686 63.25 65.0625 C64.27083333 66.22916667 65.29166667 67.39583333 66.3125 68.5625 C60.78599666 75.30330425 54.61800441 81.3696129 48.4375 87.5 C47.35653726 88.57593727 46.27580617 89.65210731 45.1953125 90.72851562 C42.57037359 93.34253292 39.94231372 95.95338596 37.3125 98.5625 C12.91888334 78.11433824 -1.04906986 48.38860201 -4.4453125 16.88671875 C-5.19830515 6.55128731 -5.19830515 6.55128731 -4.6875 2.5625 C-2.6875 0.5625 -2.6875 0.5625 0 0 Z " fill="#8FA2FF" transform="translate(148.6875,102.4375)"/>
<path d="M0 0 C4.06875551 2.34492272 7.04228598 4.86147144 10.3125 8.25 C14.12209513 12.15194895 18.02429944 15.85001172 22.171875 19.390625 C24.64033969 21.56371785 26.91535363 23.90472369 29.21875 26.25 C31.08389674 28.08242487 33.01927746 29.79353135 35 31.5 C38.22956367 34.28239332 41.23322653 37.21019429 44.21875 40.25 C46.08389674 42.08242487 48.01927746 43.79353135 50 45.5 C53.22457558 48.27809589 56.23104143 51.19001275 59.19140625 54.24609375 C61.1718237 56.16662817 63.28367225 57.84019486 65.4375 59.5625 C68.92403846 62.54423077 68.92403846 62.54423077 69.5625 66.375 C69 69 69 69 68 70 C35.28327211 71.55106869 4.56569447 60.72644335 -20 39 C-23.06899112 36.06404437 -26.06146825 33.066294 -29 30 C-23.47349666 23.25919575 -17.30550441 17.1928871 -11.125 11.0625 C-10.04403726 9.98656273 -8.96330617 8.91039269 -7.8828125 7.83398438 C-5.25787359 5.21996708 -2.62981372 2.60911404 0 0 Z " fill="#8FA2FD" transform="translate(261,218)"/>
<path d="M0 0 C2.5625 0.90625 2.5625 0.90625 4.1875 3.3125 C4.868125 4.84390625 4.868125 4.84390625 5.5625 6.40625 C6.0678125 7.49292969 6.573125 8.57960937 7.09375 9.69921875 C7.5784375 10.75753906 8.063125 11.81585938 8.5625 12.90625 C12.30683533 20.36067368 16.30116319 26.87322249 23.375 31.53125 C26.5625 33.90625 26.5625 33.90625 27.640625 36.19921875 C27.5625 38.90625 27.5625 38.90625 25.02734375 41.66796875 C23.8615307 42.65512343 22.68504441 43.62976651 21.5 44.59375 C15.8460383 49.50561509 11.82880533 54.083967 8.5625 60.90625 C8.00691406 62.06511719 7.45132813 63.22398437 6.87890625 64.41796875 C5.40507309 67.5664576 3.96786712 70.72673148 2.5625 73.90625 C-0.25 74.21875 -0.25 74.21875 -3.4375 73.90625 C-5.0703125 71.90234375 -5.0703125 71.90234375 -6.4375 68.90625 C-7.05762161 67.64601379 -7.68019157 66.38698055 -8.3046875 65.12890625 C-9.31211103 63.04887295 -10.31350152 60.96663019 -11.30078125 58.87695312 C-15.01582961 51.25170796 -19.61196455 46.49882469 -26.64453125 41.71484375 C-28.4375 39.90625 -28.4375 39.90625 -29.08203125 37.54296875 C-28.11562105 33.58947247 -25.33747868 31.75641837 -22.3125 29.28125 C-16.36928036 24.11292 -12.61786977 19.18599248 -9.4375 11.90625 C-8.52092079 9.86454407 -7.60425615 7.82287649 -6.6875 5.78125 C-6.30078125 4.87117187 -5.9140625 3.96109375 -5.515625 3.0234375 C-4.04626861 0.13796228 -3.20553835 -0.12328994 0 0 Z " fill="#FEA102" transform="translate(98.4375,214.09375)"/>
<path d="M0 0 C5.72962199 -0.0690008 11.45779304 -0.12869546 17.1875 -0.16479492 C19.13514094 -0.17984899 21.08274816 -0.2002968 23.03027344 -0.22631836 C25.83537128 -0.26285053 28.64001954 -0.27976033 31.4453125 -0.29296875 C32.74409836 -0.31619453 32.74409836 -0.31619453 34.06912231 -0.33988953 C40.34404201 -0.34162265 44.46585262 0.86598115 49.375 5 C51.86289087 9.59302929 51.73506976 13.89201523 51 19 C48.64174826 24.07931143 46.13834642 25.97063325 41 28 C37.80763676 28.38935409 34.65728907 28.35040753 31.4453125 28.29296875 C30.54376434 28.28872391 29.64221619 28.28447906 28.71334839 28.28010559 C25.85025435 28.26339058 22.98787921 28.22575192 20.125 28.1875 C18.17709354 28.17244387 16.22917598 28.15875709 14.28125 28.14648438 C9.52033744 28.11606969 4.76096791 28.05733547 0 28 C0 18.76 0 9.52 0 0 Z " fill="#FFA205" transform="translate(209,326)"/>
<path d="M0 0 C5.71167164 -0.09208248 11.42074448 -0.17164319 17.13256836 -0.21972656 C19.07341258 -0.23978028 21.01419685 -0.26703045 22.95483398 -0.30175781 C25.75259232 -0.35055175 28.54954845 -0.37303127 31.34765625 -0.390625 C32.2083522 -0.41127014 33.06904816 -0.43191528 33.95582581 -0.45318604 C39.82290463 -0.45534688 43.1700855 0.63183698 48 4 C51.63130037 7.86557781 51.55878876 12.25643698 51.421875 17.3359375 C50.7499162 21.57923292 49.1940429 23.16891652 46 26 C43.11650285 27.72500122 41.03641656 28.24720733 37.69042969 28.22705078 C36.4295755 28.22682419 36.4295755 28.22682419 35.14324951 28.22659302 C34.24519592 28.21627045 33.34714233 28.20594788 32.421875 28.1953125 C31.4953009 28.1924826 30.56872681 28.18965271 29.61407471 28.18673706 C26.65925091 28.17555611 23.70473195 28.15045527 20.75 28.125 C18.74479605 28.11496751 16.73958734 28.10584213 14.734375 28.09765625 C9.82270518 28.07732649 4.9116932 28.03817378 0 28 C0 18.76 0 9.52 0 0 Z " fill="#FFA305" transform="translate(209,372)"/>
<path d="M0 0 C4.00517396 1.60373148 6.6771098 4.42113986 9.640625 7.4453125 C10.43119293 8.24012527 10.43119293 8.24012527 11.23773193 9.05099487 C12.91325675 10.73767825 14.58167722 12.43119564 16.25 14.125 C17.38755851 15.27259388 18.52557436 16.41973461 19.6640625 17.56640625 C22.44803465 20.37238137 25.2256576 23.18450464 28 26 C12.72818732 44.01538722 12.72818732 44.01538722 3.4375 45.375 C-2.86958345 45.79547223 -7.09209818 44.69269316 -12.1171875 40.8203125 C-17.02579808 36.07464335 -18.22211031 31.56413821 -18.4375 24.8125 C-18.4315658 20.28470795 -17.67180457 17.67449554 -15 14 C-13.203125 12.2265625 -13.203125 12.2265625 -11.25 10.625 C-7.28087013 7.28064058 -3.61716963 3.71890253 0 0 Z " fill="#323FD3" transform="translate(186,220)"/>
<path d="M0 0 C1.58984375 1.6171875 1.58984375 1.6171875 2.9375 3.875 C3.4325 4.69226563 3.9275 5.50953125 4.4375 6.3515625 C4.953125 7.22554687 5.46875 8.09953125 6 9 C6.5775 9.87398437 7.155 10.74796875 7.75 11.6484375 C8.306875 12.50695312 8.86375 13.36546875 9.4375 14.25 C9.95183594 15.03890625 10.46617187 15.8278125 10.99609375 16.640625 C12.26672942 19.62686602 11.90170076 20.91448361 11 24 C8.96737858 26.89880566 6.43268344 29.30772892 3.9375 31.8125 C2.97166992 32.85180664 2.97166992 32.85180664 1.98632812 33.91210938 C-1.19156361 37.12802175 -3.48625715 39.44467945 -8.16015625 39.53515625 C-11.36489519 39.0885141 -14.2984513 38.60522529 -17.375 37.625 C-18.62410156 37.24214844 -18.62410156 37.24214844 -19.8984375 36.8515625 C-22 36 -22 36 -24 34 C-24.45756227 29.85143538 -24.32402177 25.67087925 -24.3125 21.5 C-24.32861328 20.33339844 -24.34472656 19.16679687 -24.36132812 17.96484375 C-24.36197266 16.85238281 -24.36261719 15.73992187 -24.36328125 14.59375 C-24.36626221 13.56958984 -24.36924316 12.54542969 -24.37231445 11.49023438 C-24.24945068 10.66845703 -24.12658691 9.84667969 -24 9 C-21.12830347 7.08553565 -19.99660921 6.70400601 -16.75 6.1875 C-12.52049811 5.34297284 -9.92949607 3.84243848 -6.703125 1.0234375 C-4.29371435 -0.42441936 -2.75725628 -0.43421359 0 0 Z " fill="#506BFF" transform="translate(378,230)"/>
<path d="M0 0 C4.03843343 2.60254599 6.29289779 5.25369336 7.8125 9.8125 C8.20864654 15.06144167 7.67807317 18.36592094 4.8125 22.8125 C0.39046435 26.90288297 -3.05125581 28.19020862 -9.12890625 28.08984375 C-13.82971402 27.45652809 -16.54853785 24.53553612 -19.5625 21.125 C-21.65988534 16.84956065 -22.02592582 13.49091608 -21.1875 8.8125 C-16.70124585 0.16043842 -9.49613573 -3.53777606 0 0 Z " fill="#FF4C68" transform="translate(53.1875,5.1875)"/>
<path d="M0 0 C4.71362305 1.9901964 7.72172827 5.44345654 10 10 C10.37381854 15.60727817 10.18490827 19.16772538 7 24 C3.49957725 27.80928358 0.28518786 28.75602296 -4.72265625 29.09765625 C-9.70838483 28.88386 -12.99806251 27.05467105 -16.375 23.5 C-19.11722069 19.28119893 -19.33620625 15.95904225 -19 11 C-15.55642789 1.75672751 -9.21043164 -0.8794683 0 0 Z " fill="#00C99F" transform="translate(442,23)"/>
<path d="M0 0 C3.9655082 2.08799582 6.47391909 4.07786562 8.02734375 8.28125 C8.56470724 12.86776094 8.61598056 16.8561293 6.83984375 21.15625 C3.02601551 25.62763483 -0.30819208 28.02505152 -6.22265625 28.59375 C-11.03966406 28.19233268 -13.03927675 27.0800008 -16.97265625 24.28125 C-20.00507633 20.54126524 -20.81047949 17.06546445 -20.97265625 12.28125 C-20.0527579 7.89530607 -18.69695832 4.98744452 -15.47265625 1.84375 C-10.70107373 -1.13848907 -5.32915233 -1.94171095 0 0 Z " fill="#00C99F" transform="translate(61.97265625,479.71875)"/>
<path d="M0 0 C4.47138483 3.81382824 6.86880152 7.14803583 7.4375 13.0625 C7.03608268 17.87950781 5.9237508 19.8791205 3.125 23.8125 C-0.61498476 26.84492008 -4.09078555 27.65032324 -8.875 27.8125 C-13.26094393 26.89260165 -16.16880548 25.53680207 -19.3125 22.3125 C-22.02079136 17.97923383 -22.53717613 13.82480546 -21.875 8.8125 C-20.55687175 5.19481105 -18.60943836 2.48213497 -15.75 -0.125 C-10.53573838 -2.05200973 -5.15230477 -2.12812588 0 0 Z " fill="#FFA100" transform="translate(500.875,443.1875)"/>
<path d="M0 0 C5.06816257 1.98751473 9.10261353 3.57226365 12.1875 8.25 C13.31834699 14.17072269 12.69857106 20.28750429 12.1875 26.25 C10.93127168 26.72470553 9.67469164 27.19848035 8.41796875 27.671875 C7.71824951 27.93581055 7.01853027 28.19974609 6.29760742 28.47167969 C-3.41486463 32.0541581 -3.41486463 32.0541581 -7.8125 30.25 C-10.18955248 28.4990709 -12.13826561 26.69060929 -13.8125 24.25 C-13.9375 21.625 -13.9375 21.625 -12.8125 19.25 C-12.131875 18.693125 -11.45125 18.13625 -10.75 17.5625 C-8.36707706 14.71836617 -8.69854368 13.902155 -8.9375 10.3125 C-9.1261471 5.75801995 -9.1261471 5.75801995 -7.703125 3.453125 C-5.28329103 1.23286497 -3.25443475 0.28928309 0 0 Z " fill="#506BFF" transform="translate(117.8125,140.75)"/>
<path d="M0 0 C1.08946678 -0.0049926 1.08946678 -0.0049926 2.20094299 -0.01008606 C3.74015671 -0.015158 5.27938145 -0.0174943 6.81860352 -0.01733398 C9.17808096 -0.01951891 11.53708986 -0.0376669 13.89648438 -0.05664062 C15.38932131 -0.05957477 16.88216048 -0.06155942 18.375 -0.0625 C19.43756264 -0.07327827 19.43756264 -0.07327827 20.52159119 -0.08427429 C25.52508288 -0.06085462 25.52508288 -0.06085462 27.75390625 2.16796875 C28.00390625 4.66796875 28.00390625 4.66796875 27.75390625 7.16796875 C25.2981745 9.6237005 23.90145556 9.42263021 20.54724121 9.47151184 C19.84200317 9.47060043 19.13676514 9.46968903 18.41015625 9.46875 C17.68526001 9.47303513 16.96036377 9.47732025 16.21350098 9.48173523 C14.68026779 9.48748042 13.14700735 9.48797739 11.61376953 9.48364258 C9.26287581 9.48048081 6.91323817 9.50394336 4.5625 9.52929688 C3.07422034 9.53156962 1.58593729 9.53227348 0.09765625 9.53125 C-0.96020081 9.54506462 -0.96020081 9.54506462 -2.03942871 9.55915833 C-4.02148438 9.5402832 -4.02148438 9.5402832 -7.24609375 9.16796875 C-9.24609375 6.16796875 -9.24609375 6.16796875 -8.93359375 3.54296875 C-7.56606325 -1.18122753 -4.27357713 0.00669446 0 0 Z " fill="#FEA102" transform="translate(372.24609375,353.83203125)"/>
<path d="M0 0 C2.30737305 0.89501953 2.30737305 0.89501953 4.30737305 2.89501953 C3.99513731 9.70333419 -1.90362316 13.72240056 -6.44262695 18.20751953 C-7.35012695 19.13886719 -8.25762695 20.07021484 -9.19262695 21.02978516 C-10.0743457 21.90957031 -10.95606445 22.78935547 -11.86450195 23.69580078 C-12.66984375 24.50186768 -13.47518555 25.30793457 -14.30493164 26.13842773 C-16.69262695 27.89501953 -16.69262695 27.89501953 -19.36938477 28.2824707 C-21.69262695 27.89501953 -21.69262695 27.89501953 -23.69262695 25.89501953 C-24.09375 23.58984375 -24.09375 23.58984375 -23.69262695 20.89501953 C-21.14202459 17.42975788 -18.06162144 14.50399779 -14.99511719 11.49072266 C-13.50780396 10.02266188 -12.05218439 8.52759372 -10.59692383 7.02783203 C-9.66557617 6.09970703 -8.73422852 5.17158203 -7.7746582 4.21533203 C-6.92105713 3.36213379 -6.06745605 2.50893555 -5.18798828 1.62988281 C-2.69262695 -0.10498047 -2.69262695 -0.10498047 0 0 Z " fill="#FEA206" transform="translate(377.692626953125,307.10498046875)"/>
<path d="M0 0 C5.24527024 0.78075548 8.51467382 5.45086674 12.09912109 9.09863281 C13.56718187 10.58594604 15.06225003 12.04156561 16.56201172 13.49682617 C17.49013672 14.42817383 18.41826172 15.35952148 19.37451172 16.3190918 C20.22770996 17.17269287 21.0809082 18.02629395 21.95996094 18.90576172 C23.69482422 21.40112305 23.69482422 21.40112305 23.52734375 24.15625 C22.69482422 26.40112305 22.69482422 26.40112305 21.69482422 27.40112305 C18.01380586 27.83570132 16.25787532 27.79405735 13.17773438 25.64453125 C12.37126465 24.83846436 11.56479492 24.03239746 10.73388672 23.2019043 C9.85087891 22.32211914 8.96787109 21.44233398 8.05810547 20.53588867 C6.70265625 19.13886719 6.70265625 19.13886719 5.31982422 17.71362305 C4.39298828 16.80161133 3.46615234 15.88959961 2.51123047 14.94995117 C-4.19626023 8.15849336 -4.19626023 8.15849336 -4.69042969 4.72216797 C-4.15653032 1.50557655 -3.21203878 0.55892604 0 0 Z " fill="#FEA204" transform="translate(358.30517578125,381.598876953125)"/>
</svg>
